<svg xmlns="http://www.w3.org/2000/svg" fill="none" viewBox="0 0 1920 1920">
  <g clip-path="url(#a)">
    <rect x="0" y="0" width="1920" height="1920" style="fill:rgb(6.666667%,6.666667%,6.666667%);fill-opacity:1;stroke:none;"/>
    <path
      d="M1436.34 979.653c-46.09 99.697-119.51 178.727-183.1 264.597-29.63 40-58.4 80.63-87.82 120.78-15.46 21.1-30.74 42.42-47.47 62.5-14.99 18-20.67 35.51-20.67 60.89 0 47.58 2.36 43.71-43.31 43.62-66.524-.13-133.056-.46-199.576.24-18.325.19-23.033-5.88-24.258-24.68 0-44.56-.345-58.63-25.655-90.51-38.058-47.93-85.743-114.54-122.188-163.77-21.654-29.25-43.895-58.08-66.548-86.57-75.724-95.21-140.751-196.079-164.183-318.022-22.579-117.496-4.082-228.057 55.876-332.49 31.054-54.094 70.364-100.769 116.786-140.882C746.398 269.78 839.041 241.92 956.161 241.92c136.319 0 257.519 55.352 325.149 111.311 148.49 122.875 220.96 278.653 200.08 473.179-5.69 53.057-23.04 103.208-45.05 153.243zM981.359 570.236c.043 188.091.112 376.186.116 564.284 0 87.01-.265 174.03.077 261.04.023 5.99 0 15.77 0 21.53 7.249 0 16.849-11.26 22.168-16.98 41.22-76.23 84.14-151.66 122.04-229.52 54.71-112.4 88.15-231.322 92.81-356.944 3.95-106.376-19.31-207.133-71.62-300.004-20.27-35.969-43.37-70.871-69.22-103.019-28.11-34.983-60.91-66.202-91.667-99.062l-4.696 2.34c0 84.165 0 168.33-.008 256.335zm-43.837 345.623V316.865l-6.543-3.258c-17.687 19.129-35.874 37.824-52.962 57.471-49.136 56.487-93.73 115.811-123.567 185.492-31.634 73.885-48.895 150.309-50.027 230.649-1.586 112.505 27.002 219.091 65.94 322.931 20.317 54.19 46.299 106.48 72.787 158.06 24.15 47.02 52.309 91.99 79.123 137.62 2.274 3.87 5.088 11.13 15.234 11.26 0-86.69 0-168.45.004-250.21 0-82.39.007-164.78.011-251.021zm278.258 144.351c-41.43 124.28-101.63 239.7-171.7 357.43 11.92 0 31.41-3.38 36.63-10.15 29.21-37.86 55.52-77.92 83.8-116.52 36.54-49.86 72.17-100.54 111.49-148.14 53.92-65.3 104.13-131.94 133.8-212.667 53.91-146.669 41.39-286.21-42.57-417.884-67.78-106.291-162.37-178.813-284.14-213.931-17.55-5.061-36.38-5.714-54.61-8.407 57.74 61.588 110.84 122.414 151.79 194.007 46.37 81.073 71.84 167.627 78.52 259.933 7.75 107.22-9.23 211.473-43.01 316.329zM865.833 322.471c10.153-8.624 20.31-17.246 30.467-25.869-51.813-1.198-148.078 35.583-218.757 90.9-69.412 54.325-124.954 119.486-158.834 202.291-59.463 145.329-38.228 284.226 38.123 415.177 41.269 70.78 93.581 135.21 142.011 201.72 46.963 64.48 95.804 127.61 142.683 192.16 9.224 12.7 17.837 18.05 28.742 14.55-38.818-78.54-78.601-156.83-116.406-236.06-49.439-103.61-78.147-213.101-88.085-327.51-7.342-84.476 1.017-167.566 25.981-248.348 33.097-107.105 95.132-196.934 174.075-279.011z"
      fill="url(#b)" />
    <path
      d="M983.046 1563.9c26.814-.06 51.714-.1 76.604-.19 15.16-.05 23.87 5.43 23.41 22.62-.68 25.46.33 50.96.34 76.44.02 13.9-7.35 21.53-21.23 21.55-63.898.13-127.8.07-191.697-.08-14.784-.04-22.084-7.36-21.842-22.69.399-24.92.388-49.85-.081-74.76-.311-16.41 7.419-23.05 23.305-22.93 36.419.27 72.845.06 111.191.04z"
      fill="url(#c)" />
  </g>
  <defs>
    <linearGradient id="b" x1="442" y1="1532" x2="1485" y2="242" gradientUnits="userSpaceOnUse">
      <stop stop-color="#F9075E" />
      <stop offset="1" stop-color="#F0A83D" />
    </linearGradient>
    <linearGradient id="c" x1="849" y1="1684" x2="1083" y2="1564" gradientUnits="userSpaceOnUse">
      <stop stop-color="#F9075E" />
      <stop offset="1" stop-color="#F0A83D" />
    </linearGradient>
    <clipPath id="a"><path fill="#fff" d="M0 0h1920v1920H0z" /></clipPath>
  </defs>
</svg>
